<svg width="40" height="40" viewBox="0 0 40 40" fill="none" xmlns="http://www.w3.org/2000/svg">
<path d="M15 36.6666H25C33.3333 36.6666 36.6666 33.3333 36.6666 25V15C36.6666 6.66665 33.3333 3.33331 25 3.33331H15C6.66665 3.33331 3.33331 6.66665 3.33331 15V25C3.33331 33.3333 6.66665 36.6666 15 36.6666Z" stroke="black" stroke-opacity="0.08" stroke-width="1.5" stroke-linecap="round" stroke-linejoin="round"/>
<path d="M28.4375 14.3562C25.3156 14.0468 22.175 13.8875 19.0437 13.8875C17.1875 13.8875 15.3312 13.9812 13.475 14.1687L11.5625 14.3562" stroke="black" stroke-width="2" stroke-linecap="round" stroke-linejoin="round"/>
<path d="M16.7188 13.4094L16.925 12.1813C17.075 11.2906 17.1875 10.625 18.7719 10.625H21.2281C22.8125 10.625 22.9344 11.3281 23.075 12.1906L23.2812 13.4094" stroke="black" stroke-width="2" stroke-linecap="round" stroke-linejoin="round"/>
<path d="M26.4218 17.3187L25.8124 26.7593C25.7093 28.2312 25.6249 29.3749 23.0093 29.3749H16.9905C14.3749 29.3749 14.2905 28.2312 14.1874 26.7593L13.578 17.3187" stroke="black" stroke-width="2" stroke-linecap="round" stroke-linejoin="round"/>
<path d="M18.4344 24.2188H21.5563" stroke="black" stroke-width="2" stroke-linecap="round" stroke-linejoin="round"/>
<path d="M17.6562 20.4688H22.3438" stroke="black" stroke-width="2" stroke-linecap="round" stroke-linejoin="round"/>
</svg>
