<svg width="23" height="23" viewBox="0 0 23 23" fill="none" xmlns="http://www.w3.org/2000/svg">
<path d="M19.6875 5.60623C16.5656 5.29686 13.425 5.13748 10.2937 5.13748C8.4375 5.13748 6.58125 5.23123 4.725 5.41873L2.8125 5.60623" stroke="black" stroke-width="2" stroke-linecap="round" stroke-linejoin="round"/>
<path d="M7.96875 4.65937L8.175 3.43125C8.325 2.54063 8.4375 1.875 10.0219 1.875H12.4781C14.0625 1.875 14.1844 2.57813 14.325 3.44063L14.5312 4.65937" stroke="black" stroke-width="2" stroke-linecap="round" stroke-linejoin="round"/>
<path d="M17.6718 8.56866L17.0624 18.0093C16.9593 19.4812 16.8749 20.6249 14.2593 20.6249H8.2405C5.62488 20.6249 5.5405 19.4812 5.43738 18.0093L4.828 8.56866" stroke="black" stroke-width="2" stroke-linecap="round" stroke-linejoin="round"/>
<path d="M9.68445 15.4688H12.8063" stroke="black" stroke-width="2" stroke-linecap="round" stroke-linejoin="round"/>
<path d="M8.90625 11.7188H13.5938" stroke="black" stroke-width="2" stroke-linecap="round" stroke-linejoin="round"/>
</svg>
