<svg width="118" height="20" viewBox="0 0 118 20" fill="none" xmlns="http://www.w3.org/2000/svg">
<path d="M1.305 15V4.5H6.195C7.415 4.5 8.365 4.735 9.045 5.205C9.725 5.675 10.065 6.345 10.065 7.215C10.065 8.075 9.745 8.745 9.105 9.225C8.465 9.695 7.615 9.93 6.555 9.93L6.84 9.3C8.02 9.3 8.935 9.535 9.585 10.005C10.235 10.475 10.56 11.155 10.56 12.045C10.56 12.965 10.21 13.69 9.51 14.22C8.82 14.74 7.81 15 6.48 15H1.305ZM3.72 13.2H6.39C6.95 13.2 7.375 13.09 7.665 12.87C7.955 12.65 8.1 12.31 8.1 11.85C8.1 11.41 7.955 11.085 7.665 10.875C7.375 10.655 6.95 10.545 6.39 10.545H3.72V13.2ZM3.72 8.85H5.985C6.515 8.85 6.915 8.745 7.185 8.535C7.455 8.315 7.59 7.995 7.59 7.575C7.59 7.155 7.455 6.84 7.185 6.63C6.915 6.41 6.515 6.3 5.985 6.3H3.72V8.85ZM21.9468 15.18C21.1368 15.18 20.3818 15.05 19.6818 14.79C18.9918 14.52 18.3918 14.14 17.8818 13.65C17.3718 13.16 16.9718 12.585 16.6818 11.925C16.4018 11.265 16.2618 10.54 16.2618 9.75C16.2618 8.96 16.4018 8.235 16.6818 7.575C16.9718 6.915 17.3718 6.34 17.8818 5.85C18.4018 5.36 19.0068 4.985 19.6968 4.725C20.3868 4.455 21.1418 4.32 21.9618 4.32C22.8718 4.32 23.6918 4.48 24.4218 4.8C25.1618 5.11 25.7818 5.57 26.2818 6.18L24.7218 7.62C24.3618 7.21 23.9618 6.905 23.5218 6.705C23.0818 6.495 22.6018 6.39 22.0818 6.39C21.5918 6.39 21.1418 6.47 20.7318 6.63C20.3218 6.79 19.9668 7.02 19.6668 7.32C19.3668 7.62 19.1318 7.975 18.9618 8.385C18.8018 8.795 18.7218 9.25 18.7218 9.75C18.7218 10.25 18.8018 10.705 18.9618 11.115C19.1318 11.525 19.3668 11.88 19.6668 12.18C19.9668 12.48 20.3218 12.71 20.7318 12.87C21.1418 13.03 21.5918 13.11 22.0818 13.11C22.6018 13.11 23.0818 13.01 23.5218 12.81C23.9618 12.6 24.3618 12.285 24.7218 11.865L26.2818 13.305C25.7818 13.915 25.1618 14.38 24.4218 14.7C23.6918 15.02 22.8668 15.18 21.9468 15.18ZM32.3655 15V4.5H41.9355V15H39.5205V5.925L40.0755 6.48H34.2255L34.7805 5.925V15H32.3655ZM54.0634 15.18C53.2334 15.18 52.4634 15.045 51.7534 14.775C51.0534 14.505 50.4434 14.125 49.9234 13.635C49.4134 13.145 49.0134 12.57 48.7234 11.91C48.4434 11.25 48.3034 10.53 48.3034 9.75C48.3034 8.97 48.4434 8.25 48.7234 7.59C49.0134 6.93 49.4184 6.355 49.9384 5.865C50.4584 5.375 51.0684 4.995 51.7684 4.725C52.4684 4.455 53.2284 4.32 54.0484 4.32C54.8784 4.32 55.6384 4.455 56.3284 4.725C57.0284 4.995 57.6334 5.375 58.1434 5.865C58.6634 6.355 59.0684 6.93 59.3584 7.59C59.6484 8.24 59.7934 8.96 59.7934 9.75C59.7934 10.53 59.6484 11.255 59.3584 11.925C59.0684 12.585 58.6634 13.16 58.1434 13.65C57.6334 14.13 57.0284 14.505 56.3284 14.775C55.6384 15.045 54.8834 15.18 54.0634 15.18ZM54.0484 13.11C54.5184 13.11 54.9484 13.03 55.3384 12.87C55.7384 12.71 56.0884 12.48 56.3884 12.18C56.6884 11.88 56.9184 11.525 57.0784 11.115C57.2484 10.705 57.3334 10.25 57.3334 9.75C57.3334 9.25 57.2484 8.795 57.0784 8.385C56.9184 7.975 56.6884 7.62 56.3884 7.32C56.0984 7.02 55.7534 6.79 55.3534 6.63C54.9534 6.47 54.5184 6.39 54.0484 6.39C53.5784 6.39 53.1434 6.47 52.7434 6.63C52.3534 6.79 52.0084 7.02 51.7084 7.32C51.4084 7.62 51.1734 7.975 51.0034 8.385C50.8434 8.795 50.7634 9.25 50.7634 9.75C50.7634 10.24 50.8434 10.695 51.0034 11.115C51.1734 11.525 51.4034 11.88 51.6934 12.18C51.9934 12.48 52.3434 12.71 52.7434 12.87C53.1434 13.03 53.5784 13.11 54.0484 13.11ZM66.1654 15V4.5H68.1754L72.6454 11.91H71.5804L75.9754 4.5H77.9854L78.0004 15H75.7204L75.7054 7.995H76.1404L72.6154 13.89H71.5354L67.9354 7.995H68.4454V15H66.1654ZM92.3087 4.5H94.7387V15H92.3087V4.5ZM87.5387 15H85.1087V4.5H87.5387V15ZM92.4887 10.695H87.3587V8.64H92.4887V10.695ZM101.869 15V4.5H104.284V11.34L109.294 4.5H111.574V15H109.174V8.175L104.164 15H101.869ZM115.749 15.12C115.349 15.12 115.004 14.985 114.714 14.715C114.434 14.435 114.294 14.08 114.294 13.65C114.294 13.22 114.434 12.875 114.714 12.615C115.004 12.345 115.349 12.21 115.749 12.21C116.159 12.21 116.504 12.345 116.784 12.615C117.064 12.875 117.204 13.22 117.204 13.65C117.204 14.08 117.064 14.435 116.784 14.715C116.504 14.985 116.159 15.12 115.749 15.12Z" fill="black"/>
</svg>
